<svg id="loading" viewBox="0 0 16 16" width="28px" height="28px"><path d="M8 0c.276 0 .5.224.5.5v3c0 .276-.224.5-.5.5s-.5-.224-.5-.5v-3c0-.276.224-.5.5-.5zm4 1.072c.239.138.321.444.183.683l-1.5 2.598c-.138.239-.444.321-.683.183-.239-.138-.321-.444-.183-.683l1.5-2.598c.138-.239.444-.321.683-.183zm2.928 2.928c.138.239.056.545-.183.683l-2.598 1.5c-.239.138-.545.056-.683-.183s-.056-.545.183-.683l2.598-1.5c.239-.138.545-.056.683.183zm1.072 4c0 .276-.224.5-.5.5h-3c-.276 0-.5-.224-.5-.5s.224-.5.5-.5h3c.276 0 .5.224.5.5zm-1.072 4c-.138.239-.444.321-.683.183l-2.598-1.5c-.239-.138-.321-.444-.183-.683.138-.239.444-.321.683-.183l2.598 1.5c.239.138.321.444.183.683zm-2.928 2.928c-.239.138-.545.056-.683-.183l-1.5-2.598c-.138-.239-.056-.545.183-.683s.545-.056.683.183l1.5 2.598c.138.239.056.545-.183.683zm-4 1.072c-.276 0-.5-.224-.5-.5v-3c0-.276.224-.5.5-.5s.5.224.5.5v3c0 .276-.224.5-.5.5zm-4-1.072c-.239-.138-.321-.444-.183-.683l1.5-2.598c.138-.239.444-.321.683-.183.239.138.321.444.183.683l-1.5 2.598c-.138.239-.444.321-.683.183zm-2.928-2.928c-.138-.239-.056-.545.183-.683l2.598-1.5c.239-.138.545-.056.683.183s.056.545-.183.683l-2.598 1.5c-.239.138-.545.056-.683-.183zm-1.072-4c0-.276.224-.5.5-.5h3c.276 0 .5.224.5.5s-.224.5-.5.5h-3c-.276 0-.5-.224-.5-.5zm1.072-4c.138-.239.444-.321.683-.183l2.598 1.5c.239.138.321.444.183.683-.138.239-.444.321-.683.183l-2.598-1.5c-.239-.138-.321-.444-.183-.683zm2.928-2.928c.239-.138.545-.056.683.183l1.5 2.598c.138.239.056.545-.183.683s-.545.056-.683-.183l-1.5-2.598c-.138-.239-.056-.545.183-.683z" fill="#BFC4C7"></path></svg>